<?xml version="1.0" encoding="UTF-8"?>
<svg xmlns="http://www.w3.org/2000/svg" viewBox="0 0 1024 640" role="img" aria-label="S-ART">
  <title>S-ART</title>
  <defs>
    <linearGradient id="sart-red" x1="0" y1="0" x2="1" y2="1">
      <stop offset="0%" stop-color="#ff2a45"/>
      <stop offset="100%" stop-color="#ff0f2f"/>
    </linearGradient>
  </defs>
  <g fill="url(#sart-red)">
    <path d="M163 474c-95 0-158-45-161-121l54-14c2 52 41 84 106 84 55 0 89-24 89-63 0-37-24-58-94-87-73-30-125-64-125-132 0-77 65-126 155-126 94 0 153 47 160 119l-42 9c-8-47-44-74-110-74-58 0-94 23-94 61 0 34 27 52 101 84 79 34 122 73 122 139 0 77-65 122-161 122z"/>
    <rect x="368" y="267" width="73" height="33" rx="2"/>
    <path d="M406 494h-49l105-318h50z"/>
    <path d="M470 434l76-251h78l79 251h-58l-15-49h-89l-14 49h-57zm84-85h64l-31-103-33 103z"/>
    <path d="M753 434V183h121c70 0 114 34 114 91 0 36-19 63-52 78l59 82h-66l-47-68h-64v68h-65zm65-120h56c33 0 53-14 53-40 0-25-20-39-53-39h-56v79z"/>
    <rect x="742" y="133" width="248" height="29" rx="2"/>
    <path d="M907 434V236h-99v-53h283v53h-99v198h-85z"/>
  </g>
</svg>
