<?xml version="1.0" encoding="UTF-8"?>
<svg xmlns="http://www.w3.org/2000/svg" viewBox="0 0 741 315" width="741" height="315" role="img" aria-label="S-ART Logo">
  <title>S-ART Logo</title>
  <path d="M 142 11 L 135 11 L 134 10 L 120 10 L 119 9 L 117 10 L 99 10 L 98 11 L 93 11 L 92 12 L 82 13 L 75 16 L 72 16 L 64 20 L 62 20 L 45 31 L 38 38 L 37 38 L 37 39 L 31 45 L 21 61 L 21 63 L 19 66 L 19 68 L 17 72 L 17 75 L 16 76 L 15 90 L 14 91 L 14 102 L 15 103 L 16 117 L 17 118 L 17 121 L 18 122 L 21 133 L 30 149 L 34 153 L 34 154 L 47 167 L 69 182 L 97 196 L 99 196 L 117 205 L 119 205 L 137 215 L 149 227 L 154 235 L 155 244 L 156 245 L 155 256 L 151 265 L 142 274 L 135 278 L 133 278 L 129 280 L 126 280 L 125 281 L 119 281 L 118 282 L 98 282 L 97 281 L 92 281 L 91 280 L 85 279 L 72 273 L 64 266 L 64 265 L 59 260 L 55 253 L 53 243 L 52 242 L 52 235 L 51 234 L 51 212 L 52 211 L 53 197 L 48 199 L 45 199 L 41 201 L 37 201 L 33 203 L 30 203 L 26 205 L 18 206 L 17 207 L 9 209 L 9 230 L 10 231 L 11 245 L 12 246 L 12 249 L 13 250 L 14 255 L 16 258 L 16 260 L 19 264 L 19 266 L 30 279 L 30 280 L 31 280 L 44 291 L 60 299 L 62 299 L 66 301 L 69 301 L 73 303 L 77 303 L 78 304 L 82 304 L 83 305 L 89 305 L 90 306 L 98 306 L 99 307 L 125 307 L 126 306 L 134 306 L 135 305 L 146 304 L 147 303 L 158 301 L 159 300 L 164 299 L 167 297 L 169 297 L 181 291 L 190 285 L 206 270 L 213 260 L 218 250 L 218 248 L 221 241 L 222 231 L 223 230 L 223 220 L 224 219 L 222 197 L 221 196 L 221 192 L 220 191 L 218 183 L 213 173 L 205 161 L 192 148 L 191 148 L 189 145 L 173 134 L 153 124 L 151 124 L 149 122 L 147 122 L 140 118 L 133 116 L 128 113 L 126 113 L 121 110 L 119 110 L 110 105 L 108 105 L 87 94 L 76 85 L 71 77 L 70 70 L 69 69 L 70 59 L 73 52 L 82 42 L 85 41 L 89 38 L 91 38 L 98 35 L 102 35 L 103 34 L 111 34 L 112 33 L 131 34 L 132 35 L 136 35 L 137 36 L 140 36 L 141 37 L 146 38 L 155 43 L 161 48 L 168 58 L 171 66 L 171 70 L 172 71 L 172 80 L 173 81 L 172 107 L 175 107 L 176 106 L 183 105 L 187 103 L 191 103 L 192 102 L 195 102 L 196 101 L 199 101 L 200 100 L 203 100 L 204 99 L 207 99 L 208 98 L 213 97 L 213 86 L 212 85 L 212 79 L 211 78 L 210 68 L 209 67 L 207 59 L 202 49 L 196 40 L 184 28 L 175 22 L 165 17 L 163 17 L 156 14 L 149 13 L 148 12 L 143 12 Z
    M 440 47 L 440 222 L 497 222 L 497 143 L 498 142 L 508 142 L 509 143 L 513 143 L 518 146 L 524 154 L 525 160 L 526 161 L 526 170 L 527 171 L 527 189 L 528 190 L 528 199 L 529 200 L 529 205 L 530 206 L 531 214 L 534 220 L 534 222 L 592 222 L 591 219 L 589 217 L 589 215 L 587 212 L 587 210 L 585 206 L 585 201 L 584 200 L 584 195 L 583 194 L 583 187 L 582 186 L 582 177 L 581 176 L 581 171 L 580 170 L 578 160 L 572 149 L 568 145 L 567 145 L 563 141 L 561 141 L 558 139 L 556 139 L 552 137 L 553 136 L 556 136 L 559 134 L 561 134 L 572 128 L 581 119 L 585 112 L 585 110 L 587 106 L 587 103 L 588 102 L 588 85 L 587 84 L 587 80 L 586 79 L 585 74 L 581 67 L 573 59 L 563 53 L 561 53 L 558 51 L 555 51 L 554 50 L 543 49 L 542 48 L 532 48 L 531 47 Z
    M 439 12 L 439 14 L 440 15 L 440 31 L 442 31 L 443 32 L 446 30 L 450 30 L 451 31 L 471 31 L 472 30 L 474 31 L 480 31 L 481 30 L 482 31 L 488 31 L 489 30 L 490 31 L 512 31 L 513 30 L 514 31 L 626 31 L 627 32 L 627 222 L 689 222 L 689 171 L 690 170 L 690 168 L 689 167 L 689 32 L 690 31 L 712 31 L 713 30 L 714 31 L 728 31 L 729 30 L 730 31 L 733 31 L 733 11 L 731 12 L 649 12 L 648 11 L 646 12 L 609 12 L 608 11 L 606 12 L 505 12 L 504 11 L 502 12 L 497 12 L 496 11 L 494 11 L 493 12 L 445 12 L 444 11 Z
    M 381 47 L 333 47 L 332 48 L 332 51 L 329 58 L 329 61 L 326 68 L 325 75 L 321 85 L 319 95 L 318 96 L 318 98 L 316 102 L 316 105 L 314 109 L 314 112 L 311 119 L 311 122 L 310 123 L 310 126 L 306 137 L 306 140 L 304 144 L 304 147 L 300 157 L 300 160 L 298 164 L 297 171 L 293 181 L 293 184 L 291 188 L 291 191 L 289 195 L 287 205 L 284 212 L 284 215 L 283 216 L 282 222 L 279 229 L 278 236 L 277 237 L 276 243 L 272 253 L 272 256 L 270 260 L 269 267 L 266 274 L 265 281 L 263 285 L 263 288 L 262 289 L 261 295 L 258 303 L 278 303 L 279 304 L 281 304 L 282 303 L 282 300 L 285 293 L 285 289 L 288 282 L 288 279 L 290 275 L 291 268 L 293 264 L 293 261 L 295 257 L 297 247 L 300 240 L 302 229 L 305 222 L 306 215 L 309 208 L 309 205 L 311 201 L 311 198 L 314 190 L 314 187 L 315 185 L 318 183 L 363 183 L 366 189 L 366 192 L 367 193 L 367 196 L 368 197 L 368 200 L 369 201 L 369 204 L 370 205 L 370 208 L 371 209 L 371 212 L 372 213 L 372 216 L 373 217 L 374 222 L 429 222 L 428 216 L 426 212 L 426 209 L 424 205 L 423 198 L 421 194 L 421 190 L 420 189 L 419 183 L 417 179 L 417 176 L 415 172 L 415 169 L 414 168 L 413 161 L 410 154 L 409 147 L 406 140 L 404 129 L 402 125 L 401 118 L 397 107 L 396 100 L 392 89 L 391 82 L 389 78 L 389 75 L 387 71 L 387 68 L 386 67 L 386 64 L 382 53 Z
    M 220 137 L 220 168 L 221 170 L 259 170 L 260 171 L 262 171 L 263 170 L 267 170 L 268 171 L 270 170 L 286 170 L 286 137 Z
    M 498 64 L 502 64 L 503 65 L 514 65 L 522 68 L 528 73 L 533 82 L 533 85 L 534 86 L 534 104 L 533 105 L 533 108 L 530 114 L 522 122 L 515 125 L 510 125 L 509 126 L 498 126 L 497 125 L 497 65 Z
    M 341 94 L 343 96 L 343 98 L 344 99 L 344 102 L 346 107 L 346 111 L 347 112 L 348 119 L 350 123 L 351 131 L 352 132 L 352 135 L 353 136 L 353 139 L 354 140 L 354 143 L 356 148 L 356 152 L 358 156 L 359 162 L 357 164 L 322 164 L 321 163 L 322 157 L 325 150 L 325 147 L 327 143 L 329 133 L 332 126 L 334 115 L 335 114 L 335 112 L 337 108 L 337 105 L 339 101 L 339 98 Z" fill="#ff2a2a" fill-rule="evenodd"/>
</svg>
