<?xml version="1.0" encoding="UTF-8"?>
<svg xmlns="http://www.w3.org/2000/svg" viewBox="0 0 820 260" role="img" aria-label="S-ART">
  <title>S-ART</title>
  <g fill="#ff4048">
    <path d="M112 204c-49 0-84-23-86-66h35c2 23 21 36 52 36 30 0 49-11 49-31 0-19-13-28-55-39-43-11-75-25-75-66 0-40 34-63 79-63 48 0 80 23 83 64h-35c-3-23-21-34-49-34-27 0-45 11-45 30 0 18 13 26 54 37 45 12 76 28 76 69 0 41-35 63-83 63z"/>
    <rect x="204" y="105" width="54" height="20" rx="1"/>
    <path d="M279 235h-22l48-151h22z"/>
    <path d="M307 204l44-131h30l45 131h-36l-9-31h-30l-9 31h-35zm51-60h17l-8-29-9 29z"/>
    <path d="M448 204V73h78c38 0 63 19 63 51 0 20-10 35-28 43l32 37h-43l-26-31h-39v31h-37zm37-60h36c19 0 30-8 30-22s-11-21-30-21h-36v43z"/>
    <rect x="445" y="66" width="262" height="14" rx="1"/>
    <path d="M670 204V102h-40V73h118v29h-41v102h-37z"/>
  </g>
</svg>
