<?xml version="1.0" encoding="UTF-8"?>
<svg xmlns="http://www.w3.org/2000/svg" viewBox="0 0 720 240" role="img" aria-label="S-ART">
  <title>S-ART</title>
  <style>
    .red { fill: #ff4a57; }
  </style>

  <path class="red" d="M 60 78 C 60 38 100 22 138 22 C 182 22 218 40 222 80 L 178 80 C 174 62 158 54 138 54 C 118 54 104 62 104 78 C 104 92 118 98 152 106 C 200 116 226 132 226 168 C 226 208 188 224 142 224 C 92 224 56 204 52 162 L 96 162 C 100 184 118 192 142 192 C 168 192 182 184 182 168 C 182 152 168 146 134 138 C 86 128 60 114 60 78 Z"/>
  <rect class="red" x="244" y="112" width="42" height="22"/>
  <rect class="red" x="318" y="98" width="18" height="126" transform="rotate(18 327 161)"/>
  <rect class="red" x="304" y="42" width="356" height="26"/>

  <path class="red" d="M 334 218 L 390 68 L 432 68 L 488 218 L 446 218 L 435 186 L 387 186 L 376 218 Z M 397 156 L 425 156 L 411 110 Z"/>
  <path class="red" d="M 500 68 L 500 218 L 540 218 L 540 168 L 560 168 L 594 218 L 640 218 L 602 162 C 630 152 642 134 642 110 C 642 82 620 68 582 68 Z M 540 96 L 540 138 L 578 138 C 594 138 604 130 604 117 C 604 104 594 96 578 96 Z"/>
  <rect class="red" x="650" y="68" width="40" height="150"/>
</svg>
