<?xml version="1.0" encoding="UTF-8"?>
<svg xmlns="http://www.w3.org/2000/svg" viewBox="0 0 720 240" role="img" aria-label="S-ART">
  <title>S-ART</title>
  <style>
    .bg { fill: #050505; }
    .red { fill: #e2231a; }
  </style>
  <rect class="bg" width="720" height="240"/>

  <!-- S (heavy serif) -->
  <path class="red" d="
    M 60 78
    C 60 38 100 22 138 22
    C 182 22 218 40 222 80
    L 178 80
    C 174 62 158 54 138 54
    C 118 54 104 62 104 78
    C 104 92 118 98 152 106
    C 200 116 226 132 226 168
    C 226 208 188 224 142 224
    C 92 224 56 204 52 162
    L 96 162
    C 100 184 118 192 142 192
    C 168 192 182 184 182 168
    C 182 152 168 146 134 138
    C 86 128 60 114 60 78 Z"/>

  <!-- dash -->
  <rect class="red" x="244" y="112" width="42" height="22"/>

  <!-- horizontal top bar over A R T -->
  <rect class="red" x="304" y="42" width="356" height="26"/>

  <!-- A -->
  <path class="red" d="
    M 304 218
    L 360 68
    L 402 68
    L 458 218
    L 416 218
    L 405 186
    L 357 186
    L 346 218 Z
    M 367 156
    L 395 156
    L 381 110 Z"/>

  <!-- R -->
  <path class="red" d="
    M 470 68
    L 470 218
    L 510 218
    L 510 168
    L 530 168
    L 564 218
    L 610 218
    L 572 162
    C 600 152 612 134 612 110
    C 612 82 590 68 552 68 Z
    M 510 96
    L 510 138
    L 548 138
    C 564 138 574 130 574 117
    C 574 104 564 96 548 96 Z"/>

  <!-- T (stem) -->
  <rect class="red" x="620" y="68" width="40" height="150"/>
</svg>
